<svg width="18" height="18" viewBox="0 0 18 18" fill="none" xmlns="http://www.w3.org/2000/svg">
<path fill-rule="evenodd" clip-rule="evenodd" d="M12.2197 3.96967C12.5126 3.67678 12.9874 3.67678 13.2803 3.96967L17.7803 8.46967C18.0732 8.76256 18.0732 9.23744 17.7803 9.53033L13.2803 14.0303C12.9874 14.3232 12.5126 14.3232 12.2197 14.0303C11.9268 13.7374 11.9268 13.2626 12.2197 12.9697L16.1893 9L12.2197 5.03033C11.9268 4.73744 11.9268 4.26256 12.2197 3.96967Z" fill="white"/>
<path fill-rule="evenodd" clip-rule="evenodd" d="M4.5 9C4.5 8.58579 4.83579 8.25 5.25 8.25H17.25C17.6642 8.25 18 8.58579 18 9C18 9.41421 17.6642 9.75 17.25 9.75H5.25C4.83579 9.75 4.5 9.41421 4.5 9Z" fill="white"/>
<path fill-rule="evenodd" clip-rule="evenodd" d="M2.25 1.5C2.05109 1.5 1.86032 1.57902 1.71967 1.71967C1.57902 1.86032 1.5 2.05109 1.5 2.25V15.75C1.5 15.9489 1.57902 16.1397 1.71967 16.2803C1.86032 16.421 2.05109 16.5 2.25 16.5H8.25C8.66421 16.5 9 16.8358 9 17.25C9 17.6642 8.66421 18 8.25 18H2.25C1.65326 18 1.08097 17.7629 0.65901 17.341C0.237053 16.919 0 16.3467 0 15.75V2.25C0 1.65326 0.237053 1.08097 0.65901 0.65901C1.08097 0.237053 1.65326 0 2.25 0H8.25C8.66421 0 9 0.335786 9 0.75C9 1.16421 8.66421 1.5 8.25 1.5H2.25Z" fill="white"/>
</svg>
