<svg width="24" height="24" viewBox="0 0 24 24" fill="none" xmlns="http://www.w3.org/2000/svg">
<path d="M12 0C5.3835 0 0 5.3835 0 12C0 18.6165 5.3835 24 12 24C18.6165 24 24 18.6165 24 12C24 5.3835 18.6165 0 12 0ZM13.5 5.25C14.3287 5.25 15 5.92125 15 6.75C15 7.57875 14.3287 8.25 13.5 8.25C12.6713 8.25 12 7.57875 12 6.75C12 5.92125 12.6713 5.25 13.5 5.25ZM14.8223 18.0345C13.458 18.5715 13.0598 18.75 12.1838 18.75C11.4683 18.75 10.9118 18.5753 10.515 18.2265C9.73125 17.5365 9.86325 16.5405 10.1085 15.5205L10.8465 12.9083C10.989 12.3705 11.2778 11.2718 10.8735 10.8863C10.4692 10.5008 9.528 10.7445 8.9805 10.9485L9.17775 10.1437C9.96825 9.822 10.9672 9.42825 11.82 9.42825C13.1025 9.42825 14.0408 10.0695 14.0408 11.28C14.0408 11.3932 14.0272 11.5927 14.001 11.8792C13.9515 12.405 13.9365 12.3705 13.1175 15.27C13.026 15.5888 12.8843 16.266 12.8843 16.5938C12.8843 17.856 14.352 17.544 15.0195 17.229L14.8223 18.0345Z" fill="white"/>
</svg>
