<svg width="24" height="24" viewBox="0 0 24 24" fill="none" xmlns="http://www.w3.org/2000/svg">
<circle cx="12" cy="12" r="12" fill="#E0E0E0"/>
<path d="M10.938 14.491H11.913V14.374C11.913 11.748 14.461 12.268 14.461 9.811C14.461 8.355 13.265 7.38 11.64 7.38C10.184 7.38 9.209 8.134 8.78 9.135L9.755 9.525C10.093 8.823 10.652 8.316 11.614 8.316C12.628 8.316 13.369 8.927 13.369 9.798C13.369 11.631 10.938 11.202 10.938 14.374V14.491ZM11.432 17.182C11.913 17.182 12.264 16.805 12.264 16.324C12.264 15.843 11.913 15.479 11.432 15.479C10.951 15.479 10.587 15.843 10.587 16.324C10.587 16.805 10.938 17.182 11.432 17.182Z" fill="white"/>
</svg>
