<svg width="24" height="24" viewBox="0 0 24 24" fill="none" xmlns="http://www.w3.org/2000/svg">
<path d="M11.9735 24C18.5863 24 23.947 18.6274 23.947 12C23.947 5.37258 18.5863 0 11.9735 0C5.36071 0 0 5.37258 0 12C0 18.6274 5.36071 24 11.9735 24Z" fill="white"/>
<path d="M19 16.3692C18.8911 16.0053 18.7258 15.6607 18.51 15.3481C17.9704 14.6187 14.5725 13.545 14.4179 13.4239C14.1941 13.18 13.9851 12.9228 13.7923 12.6537H13.7587V11.9476C13.9394 11.7221 14.0949 11.4775 14.2225 11.2182C14.3151 10.9529 14.3739 10.6769 14.3975 10.3969C14.959 10.1387 15.026 9.24296 15.0494 8.73967C15.0669 8.39393 14.8263 8.49167 14.6512 8.60692C14.7081 8.35309 14.7606 8.073 14.7971 7.7754C14.8073 7.69808 14.8146 7.62952 14.8204 7.54782C14.885 7.1109 14.9089 6.66894 14.8919 6.2276L15.0946 6.31075C14.9512 5.90181 14.7264 5.52615 14.434 5.20644L14.6265 5.08535C14.3176 4.87428 13.9604 4.7448 13.5881 4.70898C13.2635 4.46584 12.8929 4.29115 12.4988 4.19548C11.8922 4.06677 11.2723 4.01143 10.6525 4.03064C10.6773 4.14296 10.7021 4.25529 10.7254 4.36762C10.4624 4.18567 10.1644 4.06048 9.85042 4C9.88396 4.14588 9.9175 4.28447 9.9525 4.42597L9.57042 4.36762L9.64917 4.79213L9.41729 4.70606L9.43625 5.50987L9.27146 5.38295C9.40271 6.19259 9.03813 7.01536 9.13292 7.82938C9.15209 7.99575 9.19076 8.15928 9.24813 8.31662C9.26854 8.39685 9.29187 8.48584 9.31812 8.58212C9.15042 8.48146 8.94625 8.42165 8.96083 8.74113C8.98417 9.24442 9.05271 10.1416 9.61417 10.3983C9.63773 10.6784 9.69653 10.9543 9.78917 11.2196C9.9136 11.4723 10.0647 11.711 10.2398 11.9315V12.6537H10.2062C10.0137 12.9212 9.8053 13.177 9.58208 13.4195C9.43625 13.5406 6.02958 14.6172 5.49 15.3437C5.27425 15.6563 5.1089 16.0009 5 16.3649C5.78987 17.4879 6.83818 18.4044 8.05648 19.0371C9.27477 19.6697 10.6273 20 12 20C13.3727 20 14.7252 19.6697 15.9435 19.0371C17.1618 18.4044 18.2101 17.4879 19 16.3649V16.3692Z" fill="#32B1F4"/>
</svg>
