<svg width="16" height="16" viewBox="0 0 16 16" fill="none" xmlns="http://www.w3.org/2000/svg">
<path fill-rule="evenodd" clip-rule="evenodd" d="M8.00008 1.99984C4.68627 1.99984 2.00008 4.68603 2.00008 7.99984C2.00008 11.3136 4.68627 13.9998 8.00008 13.9998C10.4597 13.9998 12.5748 12.5202 13.5012 10.3996L14.723 10.9334C13.5921 13.5222 11.0085 15.3332 8.00008 15.3332C3.94989 15.3332 0.666748 12.05 0.666748 7.99984C0.666748 3.94965 3.94989 0.666504 8.00008 0.666504C9.99891 0.666504 11.8126 1.46725 13.1348 2.76384L12.2013 3.71584C11.1182 2.65376 9.63591 1.99984 8.00008 1.99984Z" fill="#00B6DE"/>
<path fill-rule="evenodd" clip-rule="evenodd" d="M14.4447 -0.0541992L15.4778 6.14427L9.2793 5.11119L14.4447 -0.0541992ZM12.0542 4.22194L13.8557 4.5222L13.5554 2.72067L12.0542 4.22194Z" fill="#00B6DE"/>
<path d="M10.6667 4.66683L14.0001 1.3335L14.6667 5.3335L10.6667 4.66683Z" fill="#00B6DE"/>
</svg>
