<svg width="24" height="24" viewBox="0 0 24 24" fill="none" xmlns="http://www.w3.org/2000/svg">
<path d="M0.0537109 24L1.74142 17.8373C0.700401 16.0338 0.152606 13.9878 0.153461 11.8918C0.156091 5.33464 5.49279 0 12.0499 0C15.2323 0.001265 18.2192 1.23986 20.4652 3.48774C22.7113 5.73561 23.9476 8.7236 23.9463 11.9013C23.9437 18.4585 18.6065 23.7938 12.0501 23.7938H12.05H12.0452C10.0541 23.793 8.09775 23.2937 6.36018 22.3463L0.0537109 24Z" fill="#3AC34C"/>
<path fill-rule="evenodd" clip-rule="evenodd" d="M9.07673 6.92048C8.83547 6.34103 8.5904 6.41943 8.40794 6.41034C8.23476 6.40172 8.03639 6.3999 7.83823 6.3999C7.64007 6.3999 7.31805 6.47427 7.04558 6.77173C6.77312 7.06921 6.00525 7.78814 6.00525 9.25073C6.00525 10.7133 7.07036 12.1263 7.21899 12.3247C7.3676 12.523 9.31501 15.5245 12.2968 16.8116C13.006 17.1178 13.5597 17.3006 13.9914 17.4376C14.7035 17.6637 15.3515 17.6318 15.8637 17.5553C16.4347 17.47 17.6223 16.8364 17.87 16.1423C18.1177 15.4482 18.1177 14.8532 18.0434 14.7293C17.9691 14.6054 17.7709 14.531 17.4737 14.3822C17.1764 14.2335 15.715 13.5146 15.4425 13.4154C15.1701 13.3163 14.9719 13.2667 14.7738 13.5642C14.5756 13.8616 14.006 14.531 13.8326 14.7293C13.6592 14.9276 13.4858 14.9524 13.1886 14.8037C12.8913 14.6549 11.9335 14.3411 10.7982 13.3288C9.91453 12.5409 9.31792 11.5677 9.14453 11.2702C8.97114 10.9727 9.12608 10.8119 9.27489 10.6638C9.40859 10.5306 9.57212 10.3167 9.72075 10.1432C9.86937 9.96963 9.91891 9.84568 10.018 9.64738C10.1171 9.44904 10.0675 9.27552 9.99321 9.12677C9.91891 8.97804 9.32445 7.51543 9.07673 6.92048Z" fill="white"/>
</svg>
