<svg width="72" height="17" viewBox="0 0 72 17" fill="none" xmlns="http://www.w3.org/2000/svg">
<path fill-rule="evenodd" clip-rule="evenodd" d="M1.29905 2.62673C1.1887 2.84331 1.11132 3.07988 1.05706 3.35577H3.95862L0.929688 8.15576V9.11887L3.95862 13.9189H1.01343C1.06702 14.3131 1.15491 14.6301 1.29905 14.913C1.62396 15.5507 2.14239 16.0691 2.78005 16.394C3.50498 16.7634 4.45395 16.7634 6.35191 16.7634H12.3211C14.219 16.7634 15.168 16.7634 15.8929 16.394C16.5306 16.0691 17.049 15.5507 17.3739 14.913C17.7433 14.1881 17.7433 13.2391 17.7433 11.3412V6.19859C17.7433 4.30063 17.7433 3.35166 17.3739 2.62673C17.049 1.98907 16.5306 1.47064 15.8929 1.14573C15.168 0.776367 14.219 0.776367 12.3211 0.776367H6.35191C4.45395 0.776367 3.50498 0.776367 2.78005 1.14573C2.14239 1.47064 1.62396 1.98907 1.29905 2.62673ZM9.32562 14.0603C12.5217 14.0603 14.6878 11.6695 14.6878 8.88973V7.6943H8.75002V10.0275H11.8249C11.4463 11.0645 10.5526 11.6695 9.28018 11.6695C7.44735 11.6695 6.15982 10.4452 6.15982 8.65929C6.15982 6.93096 7.52308 5.63472 9.23474 5.63472C10.3556 5.63472 11.2039 6.0812 11.7341 6.85895L13.9456 5.37547C12.9004 4.09363 11.3402 3.25827 9.21959 3.25827C8.16441 3.25827 7.20643 3.49365 6.38988 3.91228L3.52605 8.51063C3.52525 8.5422 3.5247 8.57384 3.52441 8.60556L6.55501 13.4781C7.34624 13.8492 8.27625 14.0603 9.32562 14.0603Z" fill="black"/>
<path d="M22.7773 3.7124V11.0436H24.3133V9.21591L24.9082 8.67172L26.4442 11.0436H28.3047L25.9575 7.68602L28.0667 5.73515H26.2495L24.3133 7.64495V3.7124H22.7773ZM28.783 7.36772C28.8047 7.02545 28.8948 6.74138 29.0534 6.51549C29.2121 6.2896 29.414 6.10822 29.6592 5.9713C29.9043 5.83439 30.1784 5.73858 30.4813 5.68381C30.7913 5.6222 31.1014 5.5914 31.4115 5.5914C31.6929 5.5914 31.9774 5.61193 32.2661 5.653C32.5545 5.68724 32.8178 5.75912 33.0558 5.86863C33.2937 5.97814 33.4884 6.13215 33.6399 6.33068C33.7913 6.52233 33.867 6.77902 33.867 7.10076V9.86278C33.867 10.1024 33.8812 10.3317 33.9103 10.5507C33.939 10.7698 33.9893 10.9341 34.0617 11.0436H32.5041C32.475 10.9614 32.45 10.8793 32.4284 10.7971C32.4138 10.7082 32.403 10.6192 32.3959 10.5302C32.1505 10.7698 31.8622 10.9375 31.5305 11.0333C31.1988 11.1291 30.8598 11.177 30.5137 11.177C30.2469 11.177 29.9981 11.1462 29.7673 11.0846C29.5366 11.023 29.3347 10.9272 29.1616 10.7971C28.9885 10.6671 28.8515 10.5028 28.7506 10.3043C28.6568 10.1058 28.61 9.86961 28.61 9.59582C28.61 9.29462 28.664 9.04819 28.7722 8.85654C28.8876 8.65802 29.0318 8.5006 29.2049 8.38422C29.3851 8.26784 29.5871 8.1823 29.8106 8.12753C30.0414 8.06592 30.2721 8.01802 30.5029 7.98378C30.7337 7.94954 30.9608 7.92218 31.1843 7.90164C31.4079 7.8811 31.6062 7.8503 31.7794 7.80923C31.9525 7.76816 32.0893 7.70999 32.1904 7.63468C32.2911 7.55254 32.3381 7.43616 32.331 7.28557C32.331 7.12812 32.3019 7.00491 32.2445 6.91594C32.1938 6.82009 32.1218 6.74822 32.0282 6.70031C31.9416 6.64554 31.8368 6.61134 31.7145 6.59764C31.599 6.5771 31.4728 6.56683 31.3358 6.56683C31.0329 6.56683 30.7949 6.62844 30.6219 6.75165C30.4488 6.87487 30.3478 7.08022 30.319 7.36772H28.783ZM32.331 8.44583C32.2661 8.5006 32.1829 8.54507 32.0823 8.57931C31.9882 8.60668 31.8838 8.63065 31.7686 8.65118C31.6604 8.67172 31.5449 8.68882 31.4223 8.70252C31.2997 8.71623 31.1771 8.73333 31.0545 8.75386C30.9392 8.7744 30.8238 8.80176 30.7084 8.836C30.6002 8.87024 30.5029 8.91815 30.4164 8.97975C30.337 9.03453 30.2721 9.1064 30.2217 9.19537C30.1712 9.28435 30.1459 9.39729 30.1459 9.53421C30.1459 9.66425 30.1712 9.7738 30.2217 9.86278C30.2721 9.95175 30.3406 10.0236 30.4272 10.0784C30.5137 10.1263 30.6147 10.1605 30.73 10.1811C30.8454 10.2016 30.9644 10.2119 31.087 10.2119C31.3899 10.2119 31.6242 10.164 31.7902 10.0681C31.9558 9.97229 32.0785 9.85934 32.158 9.7293C32.237 9.59238 32.284 9.4555 32.2986 9.31859C32.3202 9.18167 32.331 9.07216 32.331 8.99002V8.44583ZM36.2488 9.31859H34.7885C34.8031 9.67452 34.8859 9.97229 35.0373 10.2119C35.1962 10.4446 35.3943 10.6329 35.6322 10.7766C35.8777 10.9204 36.1552 11.023 36.4651 11.0846C36.7755 11.1462 37.0925 11.177 37.417 11.177C37.7344 11.177 38.0444 11.1462 38.3472 11.0846C38.6576 11.0299 38.9314 10.9306 39.1693 10.7869C39.4073 10.6431 39.5987 10.4549 39.7426 10.2221C39.894 9.98255 39.9698 9.68823 39.9698 9.33912C39.9698 9.0927 39.9194 8.88734 39.8183 8.72306C39.7177 8.55194 39.5841 8.41159 39.4181 8.30208C39.2525 8.1857 39.0612 8.09329 38.8448 8.02485C38.636 7.95641 38.4196 7.8982 38.1958 7.8503C37.9795 7.8024 37.7669 7.75789 37.5576 7.71682C37.3488 7.67575 37.1611 7.63124 36.9952 7.58334C36.8366 7.52857 36.7068 7.46013 36.6058 7.37798C36.5051 7.29584 36.4543 7.18973 36.4543 7.05969C36.4543 6.95018 36.4834 6.8646 36.5408 6.80299C36.5987 6.73455 36.6673 6.68321 36.7464 6.64898C36.8329 6.61474 36.9269 6.5942 37.0276 6.58737C37.1287 6.57367 37.2223 6.56683 37.3088 6.56683C37.583 6.56683 37.821 6.61817 38.0227 6.72085C38.2249 6.8167 38.3364 7.00491 38.3581 7.28557H39.8183C39.7896 6.95701 39.6993 6.68661 39.5479 6.47442C39.404 6.25537 39.2201 6.08081 38.9963 5.95077C38.7728 5.82072 38.517 5.72831 38.2283 5.67354C37.947 5.61877 37.655 5.5914 37.3521 5.5914C37.0492 5.5914 36.7539 5.61877 36.4651 5.67354C36.1768 5.72144 35.9172 5.81046 35.6863 5.9405C35.4558 6.06371 35.2682 6.23483 35.1239 6.45389C34.987 6.67295 34.9183 6.95357 34.9183 7.29584C34.9183 7.52857 34.9691 7.72709 35.0698 7.89137C35.1709 8.04882 35.3044 8.1823 35.47 8.29181C35.636 8.39449 35.8236 8.48007 36.0325 8.54851C36.2488 8.61011 36.4689 8.66489 36.6923 8.71279C37.2406 8.8223 37.6658 8.93185 37.9687 9.04136C38.279 9.15087 38.4338 9.31515 38.4338 9.53421C38.4338 9.66425 38.4013 9.7738 38.3364 9.86278C38.2715 9.94492 38.1887 10.0134 38.0876 10.0681C37.994 10.116 37.8859 10.1537 37.7631 10.1811C37.6479 10.2016 37.536 10.2119 37.4278 10.2119C37.2764 10.2119 37.1287 10.1948 36.9843 10.1605C36.8475 10.1263 36.7247 10.075 36.6166 10.0065C36.5084 9.93122 36.4185 9.83881 36.3461 9.7293C36.2812 9.61292 36.2488 9.47604 36.2488 9.31859ZM41.0094 3.7124V11.0436H42.5454V9.21591L43.1403 8.67172L44.6763 11.0436H46.5368L44.1896 7.68602L46.2988 5.73515H44.4816L42.5454 7.64495V3.7124H41.0094ZM48.443 8.39449C48.443 8.1823 48.4647 7.97351 48.5079 7.76816C48.5512 7.5628 48.6232 7.38142 48.7243 7.22397C48.8324 7.06652 48.9731 6.93991 49.1461 6.84406C49.3192 6.74138 49.5355 6.69005 49.7951 6.69005C50.0547 6.69005 50.2711 6.74138 50.4441 6.84406C50.6243 6.93991 50.7649 7.06652 50.866 7.22397C50.9742 7.38142 51.0499 7.5628 51.0931 7.76816C51.1364 7.97351 51.158 8.1823 51.158 8.39449C51.158 8.60668 51.1364 8.81547 51.0931 9.02082C51.0499 9.21935 50.9742 9.40073 50.866 9.56501C50.7649 9.72247 50.6243 9.84907 50.4441 9.94492C50.2711 10.0408 50.0547 10.0887 49.7951 10.0887C49.5355 10.0887 49.3192 10.0408 49.1461 9.94492C48.9731 9.84907 48.8324 9.72247 48.7243 9.56501C48.6232 9.40073 48.5512 9.21935 48.5079 9.02082C48.4647 8.81547 48.443 8.60668 48.443 8.39449ZM46.9071 8.39449C46.9071 8.8189 46.9757 9.20221 47.1126 9.54448C47.2494 9.88675 47.4441 10.1811 47.6967 10.4275C47.9492 10.6671 48.2521 10.8519 48.6053 10.982C48.9585 11.112 49.3554 11.177 49.7951 11.177C50.2349 11.177 50.6318 11.112 50.985 10.982C51.3457 10.8519 51.6519 10.6671 51.9044 10.4275C52.1569 10.1811 52.3516 9.88675 52.4885 9.54448C52.6254 9.20221 52.694 8.8189 52.694 8.39449C52.694 7.97008 52.6254 7.58677 52.4885 7.2445C52.3516 6.8954 52.1569 6.60107 51.9044 6.36148C51.6519 6.11505 51.3457 5.9268 50.985 5.79675C50.6318 5.65984 50.2349 5.5914 49.7951 5.5914C49.3554 5.5914 48.9585 5.65984 48.6053 5.79675C48.2521 5.9268 47.9492 6.11505 47.6967 6.36148C47.4441 6.60107 47.2494 6.8954 47.1126 7.2445C46.9757 7.58677 46.9071 7.97008 46.9071 8.39449ZM53.5086 6.61817H54.9797C54.9797 6.42652 54.998 6.23483 55.0338 6.04318C55.077 5.84466 55.1457 5.66671 55.2393 5.50926C55.3333 5.34497 55.4556 5.21493 55.6071 5.11908C55.766 5.0164 55.9569 4.96507 56.1804 4.96507C56.5123 4.96507 56.7828 5.06431 56.9916 5.26283C57.2079 5.45448 57.3161 5.72488 57.3161 6.07398C57.3161 6.29304 57.262 6.48813 57.1539 6.65924C57.0532 6.83036 56.9234 6.98438 56.7645 7.12129C56.613 7.25821 56.4437 7.38482 56.2561 7.5012C56.0689 7.61071 55.892 7.72026 55.7261 7.82976C55.4015 8.04195 55.0916 8.25074 54.7958 8.4561C54.5075 8.66145 54.255 8.88734 54.0386 9.13377C53.8223 9.37336 53.6492 9.64716 53.5194 9.95519C53.3971 10.2632 53.3355 10.626 53.3355 11.0436H58.8954V9.7909H55.315C55.5026 9.54448 55.719 9.32886 55.964 9.14404C56.2095 8.95922 56.4616 8.7881 56.7212 8.63065C56.9808 8.46636 57.2371 8.30208 57.4892 8.1378C57.7488 7.97351 57.9797 7.79213 58.1814 7.59361C58.3836 7.38825 58.5459 7.15553 58.6682 6.8954C58.7909 6.63527 58.8521 6.32384 58.8521 5.96104C58.8521 5.61193 58.7801 5.29707 58.6358 5.01641C58.4989 4.73574 58.3113 4.49958 58.0733 4.30793C57.8353 4.11628 57.5578 3.9691 57.2404 3.86642C56.9305 3.76374 56.6022 3.7124 56.2561 3.7124C55.8018 3.7124 55.3982 3.78771 55.0446 3.93829C54.6985 4.08204 54.4101 4.2874 54.1793 4.55436C53.9488 4.81449 53.7757 5.12252 53.66 5.47845C53.5448 5.82756 53.4945 6.20746 53.5086 6.61817ZM62.3101 9.7909C62.0722 9.7909 61.8737 9.743 61.7152 9.64716C61.5563 9.55131 61.4265 9.4281 61.3258 9.27752C61.2318 9.12694 61.1636 8.95922 61.1203 8.7744C61.0841 8.58275 61.0662 8.39106 61.0662 8.1994C61.0662 8.00088 61.0878 7.81267 61.1311 7.63468C61.1814 7.44986 61.2572 7.28901 61.3583 7.15209C61.4664 7.00835 61.5962 6.8954 61.7477 6.81326C61.9062 6.73112 62.0938 6.69005 62.3101 6.69005C62.5622 6.69005 62.7715 6.73455 62.9375 6.82353C63.1031 6.9125 63.2366 7.03232 63.3377 7.1829C63.4384 7.33348 63.5108 7.50803 63.5541 7.70655C63.5973 7.8982 63.619 8.10356 63.619 8.32262C63.619 8.51427 63.5898 8.69909 63.5324 8.87707C63.4817 9.04819 63.4026 9.20221 63.2945 9.33912C63.1863 9.47604 63.049 9.58555 62.8834 9.66769C62.7174 9.74983 62.5265 9.7909 62.3101 9.7909ZM65.0792 10.7047V5.73515H63.619V6.44362H63.5973C63.4097 6.13559 63.1755 5.91653 62.8942 5.78648C62.6201 5.65644 62.2993 5.5914 61.9315 5.5914C61.5421 5.5914 61.196 5.66327 60.8931 5.80702C60.5973 5.95077 60.3485 6.14586 60.1468 6.39228C59.9446 6.63188 59.7898 6.9125 59.6817 7.23424C59.5806 7.5491 59.5302 7.87767 59.5302 8.21994C59.5302 8.58275 59.5735 8.92841 59.66 9.25698C59.7536 9.57872 59.898 9.86278 60.0927 10.1092C60.2874 10.3488 60.5362 10.5404 60.8391 10.6842C61.1419 10.8211 61.5022 10.8896 61.9207 10.8896C62.2594 10.8896 62.5805 10.8245 62.8834 10.6945C63.1934 10.5575 63.4313 10.3488 63.5973 10.0681H63.619V10.7663C63.626 11.1428 63.5287 11.4543 63.3269 11.7007C63.1322 11.9471 62.8185 12.0703 62.3858 12.0703C62.1117 12.0703 61.87 12.0156 61.6611 11.9061C61.4519 11.8034 61.3112 11.6151 61.2393 11.3413H59.7141C59.7357 11.6425 59.8223 11.8992 59.9737 12.1114C60.1322 12.3305 60.3269 12.5084 60.5578 12.6453C60.7958 12.7823 61.0554 12.8815 61.3366 12.9431C61.6249 13.0115 61.9062 13.0458 62.1803 13.0458C62.8218 13.0458 63.334 12.9636 63.7163 12.7993C64.0982 12.6351 64.3903 12.4331 64.5925 12.1936C64.7942 11.9608 64.924 11.7075 64.9819 11.4337C65.0468 11.1599 65.0792 10.9169 65.0792 10.7047ZM67.6786 8.39449C67.6786 8.1823 67.7002 7.97351 67.7435 7.76816C67.7867 7.5628 67.8591 7.38142 67.9598 7.22397C68.068 7.06652 68.2086 6.93991 68.3817 6.84406C68.5547 6.74138 68.7711 6.69005 69.0307 6.69005C69.2903 6.69005 69.5066 6.74138 69.6797 6.84406C69.8602 6.93991 70.0009 7.06652 70.1015 7.22397C70.2097 7.38142 70.2854 7.5628 70.3287 7.76816C70.3719 7.97351 70.3936 8.1823 70.3936 8.39449C70.3936 8.60668 70.3719 8.81547 70.3287 9.02082C70.2854 9.21935 70.2097 9.40073 70.1015 9.56501C70.0009 9.72247 69.8602 9.84907 69.6797 9.94492C69.5066 10.0408 69.2903 10.0887 69.0307 10.0887C68.7711 10.0887 68.5547 10.0408 68.3817 9.94492C68.2086 9.84907 68.068 9.72247 67.9598 9.56501C67.8591 9.40073 67.7867 9.21935 67.7435 9.02082C67.7002 8.81547 67.6786 8.60668 67.6786 8.39449ZM66.1426 8.39449C66.1426 8.8189 66.2112 9.20221 66.3481 9.54448C66.4854 9.88675 66.6801 10.1811 66.9322 10.4275C67.1847 10.6671 67.4876 10.8519 67.8408 10.982C68.1945 11.112 68.5909 11.177 69.0307 11.177C69.4708 11.177 69.8673 11.112 70.2205 10.982C70.5812 10.8519 70.8878 10.6671 71.1399 10.4275C71.3925 10.1811 71.5872 9.88675 71.724 9.54448C71.8613 9.20221 71.9296 8.8189 71.9296 8.39449C71.9296 7.97008 71.8613 7.58677 71.724 7.2445C71.5872 6.8954 71.3925 6.60107 71.1399 6.36148C70.8878 6.11505 70.5812 5.9268 70.2205 5.79675C69.8673 5.65984 69.4708 5.5914 69.0307 5.5914C68.5909 5.5914 68.1945 5.65984 67.8408 5.79675C67.4876 5.9268 67.1847 6.11505 66.9322 6.36148C66.6801 6.60107 66.4854 6.8954 66.3481 7.2445C66.2112 7.58677 66.1426 7.97008 66.1426 8.39449Z" fill="#1E1C1C"/>
</svg>
