<svg width="175" height="38" viewBox="0 0 175 38" fill="none" xmlns="http://www.w3.org/2000/svg">
<path d="M34.9606 1.77926C34.6399 1.13586 34.1587 0.65331 33.5975 0.412033C32.8758 0.0903321 31.9938 0.090332 30.2297 0.090332H5.13183C3.36776 0.090332 2.40555 0.0903321 1.76407 0.412033C1.12259 0.733735 0.641479 1.21629 0.320739 1.77926C0 2.50309 0 3.38777 0 5.15713V5.63968H6.41479L0 16.095V18.5077L6.41479 28.963H0V30.2498C0 32.0192 0 32.9843 0.320739 33.6277C0.641479 34.2711 1.12259 34.7537 1.68388 34.9949C2.40555 35.3166 3.28758 35.3166 5.05165 35.3166H30.0693C31.8334 35.3166 32.7956 35.3166 33.4371 34.9949C34.0786 34.6732 34.5597 34.1907 34.8002 33.6277C35.121 32.9039 35.121 32.0192 35.121 30.2498V5.23756C35.2813 3.38777 35.2813 2.50309 34.9606 1.77926ZM28.8665 18.2665C28.8665 24.4592 24.3762 29.8477 17.7209 29.8477C15.5559 29.8477 13.6314 29.3652 11.9475 28.5609L5.61294 17.6231C5.61294 17.5426 5.61294 17.4622 5.61294 17.3818L11.5466 7.16776C13.2305 6.20266 15.2351 5.72011 17.4803 5.72011C21.8905 5.72011 25.178 7.56989 27.343 10.4652L22.7725 13.7626C21.6499 11.9933 19.8858 11.0282 17.5605 11.0282C14.0323 11.0282 11.1457 13.9235 11.1457 17.7839C11.1457 21.8052 13.7918 24.5396 17.6407 24.5396C20.2868 24.5396 22.131 23.1724 22.9329 20.8401H16.5181V15.6124H28.8665V18.2665Z" fill="white"/>
<path d="M51.6138 33.4933C51.2065 33.4933 50.7991 33.412 50.3918 33.2494C49.9845 33.0868 49.7401 32.8429 49.4957 32.5177V35.7695H48.2737V27.2336H49.4957V28.1279C49.7401 27.8027 50.0659 27.5588 50.3918 27.3962C50.7991 27.2336 51.2065 27.1523 51.6138 27.1523C52.0211 27.1523 52.4285 27.2336 52.7543 27.3962C53.1617 27.5588 53.4875 27.7214 53.7319 28.0466C54.0578 28.2905 54.2207 28.6969 54.3836 29.0221C54.5466 29.4286 54.628 29.835 54.628 30.3228C54.628 30.8106 54.5466 31.217 54.3836 31.6235C54.2207 32.03 53.9763 32.3552 53.7319 32.599C53.4875 32.8429 53.1617 33.0868 52.7543 33.2494C52.347 33.412 52.0211 33.4933 51.6138 33.4933ZM51.4509 32.3552C51.6953 32.3552 52.0211 32.2739 52.2655 32.1926C52.5099 32.1113 52.7543 31.9487 52.9173 31.7861C53.0802 31.6235 53.2431 31.3796 53.3246 31.1357C53.4061 30.8919 53.4875 30.648 53.4875 30.3228C53.4875 29.9976 53.4061 29.7537 53.3246 29.5099C53.2431 29.266 53.0802 29.0221 52.9173 28.8595C52.7543 28.6969 52.5099 28.5343 52.2655 28.453C52.0211 28.3718 51.7767 28.2905 51.4509 28.2905C51.125 28.2905 50.8806 28.3718 50.6362 28.453C50.3918 28.5343 50.1474 28.6969 49.9845 28.8595C49.8215 29.0221 49.6586 29.266 49.5771 29.5099C49.4957 29.7537 49.4142 29.9976 49.4142 30.3228C49.4142 30.648 49.4957 30.8919 49.5771 31.1357C49.6586 31.3796 49.8215 31.6235 49.9845 31.7861C50.1474 31.9487 50.3918 32.1113 50.6362 32.1926C50.8806 32.3552 51.125 32.3552 51.4509 32.3552Z" fill="white"/>
<path d="M58.7009 33.493C58.2121 33.493 57.8048 33.4117 57.4789 33.2492C57.0716 33.0866 56.7458 32.8427 56.5014 32.5988C56.1755 32.2736 56.0126 31.9484 55.8496 31.6233C55.6867 31.2168 55.6052 30.8103 55.6052 30.4039C55.6052 29.9974 55.6867 29.5909 55.8496 29.1845C56.0126 28.778 56.257 28.4528 56.5014 28.1276C56.8272 27.8025 57.1531 27.6399 57.4789 27.4773C57.8863 27.3147 58.2936 27.2334 58.7009 27.2334C59.1083 27.2334 59.5971 27.3147 59.9229 27.4773C60.3303 27.6399 60.6561 27.8838 60.982 28.1276C61.3079 28.4528 61.4708 28.778 61.6337 29.1845C61.7967 29.5909 61.8781 29.9974 61.8781 30.4039C61.8781 30.8103 61.7967 31.2981 61.6337 31.6233C61.4708 32.0297 61.2264 32.3549 60.982 32.5988C60.6561 32.924 60.3303 33.0866 59.9229 33.2492C59.5156 33.4117 59.1083 33.493 58.7009 33.493ZM58.7009 32.3549C58.9453 32.3549 59.2712 32.2736 59.5156 32.1923C59.76 32.111 60.0044 31.9484 60.1673 31.7859C60.3303 31.6233 60.4932 31.3794 60.5747 31.1355C60.6561 30.8916 60.7376 30.6477 60.7376 30.3226C60.7376 30.0787 60.6561 29.7535 60.5747 29.5096C60.4932 29.2657 60.3303 29.0219 60.1673 28.8593C60.0044 28.6967 59.76 28.5341 59.5156 28.4528C59.2712 28.3715 59.0268 28.2902 58.7009 28.2902C58.4565 28.2902 58.1307 28.3715 57.8863 28.4528C57.6419 28.5341 57.4789 28.6967 57.2345 28.8593C57.0716 29.0219 56.9087 29.2657 56.8272 29.5096C56.7458 29.7535 56.6643 29.9974 56.6643 30.3226C56.6643 30.6477 56.7458 30.8916 56.8272 31.1355C56.9087 31.3794 57.0716 31.6233 57.2345 31.7859C57.3975 31.9484 57.6419 32.111 57.8863 32.1923C58.1307 32.2736 58.3751 32.3549 58.7009 32.3549Z" fill="white"/>
<path d="M62.2054 27.2334H63.5089L64.9753 31.7046L66.6861 27.2334H67.7451L69.3745 31.7046L70.8409 27.2334H72.1443L70.0262 33.3304H68.8857L67.1749 28.8593L65.4641 33.3304H64.2421L62.2054 27.2334Z" fill="white"/>
<path d="M75.7282 33.493C75.2394 33.493 74.7506 33.4117 74.3433 33.2492C73.9359 33.0866 73.6101 32.8427 73.2842 32.5988C72.9583 32.2736 72.7954 31.9484 72.6325 31.6233C72.4695 31.2168 72.3881 30.8103 72.3881 30.4039C72.3881 29.9161 72.4695 29.5096 72.6325 29.1845C72.7954 28.778 73.0398 28.4528 73.2842 28.1276C73.6101 27.8025 73.9359 27.6399 74.2618 27.4773C74.6691 27.3147 75.0764 27.2334 75.5652 27.2334C76.054 27.2334 76.4614 27.3147 76.7872 27.4773C77.1946 27.6399 77.5204 27.8025 77.7648 28.1276C78.0092 28.3715 78.2536 28.778 78.4166 29.1032C78.5795 29.5096 78.661 29.9161 78.661 30.3226V30.8103H73.4471C73.5286 31.2981 73.773 31.7046 74.0989 32.0297C74.4247 32.3549 74.9135 32.4362 75.4838 32.4362C75.8911 32.4362 76.2984 32.3549 76.5428 32.1923C76.8687 32.0297 77.1131 31.7859 77.276 31.4607L78.2536 32.0297C77.9278 32.4362 77.6019 32.8427 77.1131 33.0866C76.9502 33.3304 76.3799 33.493 75.7282 33.493ZM75.6467 28.2089C75.1579 28.2089 74.7506 28.3715 74.3433 28.6154C74.0174 28.8593 73.773 29.2657 73.6101 29.6722H77.5204C77.439 29.1845 77.1946 28.778 76.8687 28.5341C76.6243 28.3715 76.217 28.2089 75.6467 28.2089Z" fill="white"/>
<path d="M79.8832 27.2329H81.1052V28.2897C81.2681 27.8833 81.431 27.6394 81.7569 27.3955C82.0828 27.2329 82.4086 27.0703 82.816 27.0703C83.0604 27.0703 83.2233 27.0703 83.3862 27.1516C83.5492 27.1516 83.7121 27.2329 83.875 27.3142L83.3862 28.4523C83.2233 28.371 82.9789 28.2897 82.5716 28.2897C82.1642 28.2897 81.7569 28.371 81.5125 28.6149C81.2681 28.8588 81.1052 29.2652 81.1052 29.753V33.1674H79.8832V27.2329Z" fill="white"/>
<path d="M87.0519 33.493C86.5631 33.493 86.0743 33.4117 85.667 33.2492C85.2597 33.0866 84.9338 32.8427 84.6079 32.5988C84.2821 32.2736 84.1191 31.9484 83.9562 31.6233C83.7933 31.2168 83.7118 30.8103 83.7118 30.4039C83.7118 29.9161 83.7933 29.5096 83.9562 29.1845C84.1191 28.778 84.3635 28.4528 84.6079 28.1276C84.9338 27.8025 85.2597 27.6399 85.5855 27.4773C85.9928 27.3147 86.4002 27.2334 86.889 27.2334C87.3778 27.2334 87.7851 27.3147 88.111 27.4773C88.5183 27.6399 88.8442 27.8025 89.0886 28.1276C89.333 28.3715 89.5774 28.778 89.7403 29.1032C89.9032 29.5096 89.9847 29.9161 89.9847 30.3226V30.8103H84.7709C84.8523 31.2981 85.0967 31.7046 85.4226 32.0297C85.7484 32.3549 86.2372 32.4362 86.8075 32.4362C87.2148 32.4362 87.6222 32.3549 87.8666 32.1923C88.1924 32.0297 88.4368 31.7859 88.5998 31.4607L89.5774 32.0297C89.2515 32.4362 88.9256 32.8427 88.4368 33.0866C88.2739 33.3304 87.7851 33.493 87.0519 33.493ZM86.9704 28.2089C86.4816 28.2089 86.0743 28.3715 85.667 28.6154C85.3411 28.8593 85.0967 29.2657 84.9338 29.6722H88.8442C88.7627 29.1845 88.5183 28.778 88.1924 28.5341C87.948 28.3715 87.5407 28.2089 86.9704 28.2089Z" fill="white"/>
<path d="M94.0571 33.4929C93.6498 33.4929 93.2424 33.4116 92.9166 33.249C92.5092 33.0864 92.1834 32.8425 91.939 32.5986C91.6946 32.3547 91.4502 31.9483 91.2872 31.6231C91.1243 31.2166 91.0428 30.8102 91.0428 30.3224C91.0428 29.8346 91.1243 29.4282 91.2872 29.0217C91.4502 28.6152 91.6946 28.29 91.939 28.0462C92.2648 27.8023 92.5907 27.5584 92.9166 27.3958C93.3239 27.2332 93.7312 27.1519 94.1386 27.1519C94.5459 27.1519 94.9532 27.2332 95.2791 27.3958C95.6864 27.5584 95.9308 27.8023 96.1752 28.1275V24.4692H97.3972V33.4116H96.1752V32.436C95.9308 32.7612 95.605 33.0051 95.2791 33.1677C94.8718 33.4116 94.4644 33.4929 94.0571 33.4929ZM94.22 32.3547C94.5459 32.3547 94.7903 32.2734 95.0347 32.1922C95.2791 32.1109 95.5235 31.9483 95.6864 31.7857C95.8494 31.6231 96.0123 31.3792 96.0938 31.1353C96.1752 30.8915 96.2567 30.6476 96.2567 30.3224C96.2567 30.0785 96.1752 29.7533 96.0938 29.5095C96.0123 29.2656 95.8494 29.0217 95.6864 28.8591C95.5235 28.6965 95.2791 28.5339 95.0347 28.4526C94.7903 28.3713 94.5459 28.29 94.22 28.29C93.8942 28.29 93.6498 28.3713 93.4054 28.4526C93.161 28.5339 92.9166 28.6965 92.7536 28.8591C92.5907 29.0217 92.4278 29.2656 92.3463 29.5095C92.2648 29.7533 92.1834 29.9972 92.1834 30.3224C92.1834 30.6476 92.2648 30.8915 92.3463 31.1353C92.4278 31.3792 92.5907 31.6231 92.7536 31.7857C92.9166 31.9483 93.161 32.1109 93.4054 32.1922C93.6498 32.3547 93.9756 32.3547 94.22 32.3547Z" fill="white"/>
<path d="M104.567 33.4929C104.16 33.4929 103.753 33.4116 103.345 33.249C102.938 33.0864 102.693 32.8425 102.449 32.5173V33.4116H101.227V24.4692H102.449V28.2088C102.693 27.8836 103.019 27.6397 103.345 27.4771C103.753 27.3145 104.16 27.2332 104.567 27.2332C104.974 27.2332 105.382 27.3145 105.708 27.4771C106.115 27.6397 106.441 27.8023 106.685 28.1275C107.011 28.3713 107.174 28.7778 107.337 29.103C107.5 29.5095 107.581 29.9159 107.581 30.4037C107.581 30.8915 107.5 31.2979 107.337 31.7044C107.174 32.1109 106.93 32.436 106.685 32.6799C106.441 32.9238 106.115 33.1677 105.708 33.3303C105.382 33.4116 104.974 33.4929 104.567 33.4929ZM104.404 32.3547C104.649 32.3547 104.974 32.2734 105.219 32.1922C105.463 32.1109 105.708 31.9483 105.871 31.7857C106.034 31.6231 106.196 31.3792 106.278 31.1353C106.359 30.8915 106.441 30.6476 106.441 30.3224C106.441 29.9972 106.359 29.7533 106.278 29.5095C106.196 29.2656 106.034 29.0217 105.871 28.8591C105.708 28.6965 105.463 28.5339 105.219 28.4526C104.974 28.3713 104.73 28.29 104.404 28.29C104.078 28.29 103.834 28.3713 103.59 28.4526C103.345 28.5339 103.101 28.6965 102.938 28.8591C102.775 29.0217 102.612 29.2656 102.531 29.5095C102.449 29.7533 102.368 29.9972 102.368 30.3224C102.368 30.6476 102.449 30.8915 102.531 31.1353C102.612 31.3792 102.775 31.6231 102.938 31.7857C103.101 31.9483 103.345 32.1109 103.59 32.1922C103.834 32.3547 104.078 32.3547 104.404 32.3547Z" fill="white"/>
<path d="M108.884 35.6069C108.558 35.6069 108.314 35.5256 107.988 35.4443C107.744 35.363 107.499 35.2817 107.255 35.1191L107.988 34.0623C108.07 34.1436 108.232 34.2249 108.314 34.3062C108.477 34.3875 108.64 34.3875 108.803 34.3875C108.966 34.3875 109.129 34.3875 109.21 34.3062C109.373 34.3062 109.454 34.2249 109.536 34.1436C109.617 34.0623 109.78 33.981 109.862 33.8184C109.943 33.6559 110.025 33.4933 110.188 33.2494L110.269 33.0055L107.744 27.1523H109.047L110.921 31.6235L112.713 27.2336H114.017L111.247 33.6559C111.084 33.981 110.921 34.3062 110.758 34.5501C110.595 34.794 110.432 35.0378 110.188 35.1191C110.025 35.2817 109.78 35.363 109.536 35.4443C109.373 35.6069 109.129 35.6069 108.884 35.6069Z" fill="white"/>
<path d="M48.2745 0.0802879V16.459H51.5768V12.3643L52.8654 11.16L56.1676 16.459H60.1142L55.1206 8.91195L59.6309 4.57641H55.7649L51.6573 8.83167V0H48.2745V0.0802879ZM61.0807 8.18936C61.1612 7.38648 61.3223 6.82447 61.6445 6.26245C61.9666 5.78073 62.4499 5.37929 62.9332 5.05814C63.4969 4.73699 64.0607 4.57641 64.7051 4.41583C65.3494 4.25526 65.9937 4.17497 66.7186 4.17497C67.2824 4.17497 67.9268 4.25526 68.5711 4.33555C69.2154 4.41583 69.7792 4.57641 70.2625 4.81727C70.7457 5.05814 71.1484 5.37929 71.4706 5.86102C71.7928 6.26245 71.9538 6.82447 71.9538 7.54706V13.7292C71.9538 14.2912 71.9538 14.773 72.0344 15.2547C72.1149 15.7364 72.1955 16.1379 72.3565 16.3787H69.0543C68.9738 16.2182 68.9738 15.9773 68.8932 15.8167C68.8932 15.6561 68.8127 15.4153 68.8127 15.2547C68.2489 15.8167 67.6851 16.1379 66.9602 16.3787C66.2354 16.6196 65.5105 16.6999 64.7856 16.6999C64.2218 16.6999 63.658 16.6196 63.1748 16.459C62.6915 16.2984 62.2888 16.1379 61.8861 15.8167C61.4834 15.4956 61.2418 15.1744 61.0001 14.6927C60.8391 14.211 60.678 13.7292 60.678 13.0869C60.678 12.4446 60.7585 11.8826 61.0001 11.4009C61.2418 10.9192 61.5639 10.598 61.8861 10.3571C62.2888 10.1163 62.6915 9.87541 63.1748 9.79512C63.658 9.63455 64.1413 9.55426 64.6245 9.47397C65.1078 9.39368 65.591 9.31339 66.0743 9.31339C66.5575 9.23311 66.9602 9.23311 67.363 9.07253C67.7657 8.99224 68.0073 8.83167 68.2489 8.67109C68.4905 8.51051 68.5711 8.18936 68.5711 7.86821C68.5711 7.54706 68.4905 7.22591 68.41 7.06533C68.3295 6.82447 68.1684 6.66389 67.9267 6.58361C67.7657 6.42303 67.524 6.42303 67.2824 6.34274C67.0408 6.26245 66.7992 6.26245 66.477 6.26245C65.8327 6.26245 65.3494 6.42303 64.9467 6.66389C64.544 6.90476 64.3829 7.38649 64.3024 8.02879H61.0807V8.18936ZM68.6516 10.598C68.4905 10.7586 68.3295 10.8389 68.0878 10.9192C67.9267 10.9994 67.6851 10.9994 67.4435 11.0797C67.2824 11.16 67.0408 11.16 66.7186 11.2403C66.477 11.2403 66.1548 11.3206 65.9132 11.3206C65.6716 11.4009 65.4299 11.4009 65.1883 11.4812C64.9467 11.5615 64.7856 11.6417 64.544 11.8023C64.3829 11.9629 64.2218 12.1235 64.1413 12.284C64.0607 12.4446 63.9802 12.7658 63.9802 13.0066C63.9802 13.3278 64.0607 13.5687 64.1413 13.7292C64.2218 13.8898 64.3829 14.0504 64.544 14.211C64.7051 14.2912 64.9467 14.3715 65.1883 14.4518C65.4299 14.5321 65.6716 14.5321 65.9132 14.5321C66.5575 14.5321 67.0408 14.4518 67.4435 14.211C67.7657 13.9701 68.0878 13.7292 68.2489 13.4884C68.41 13.1672 68.4905 12.8461 68.5711 12.6052C68.6516 12.284 68.6516 12.0432 68.6516 11.8826V10.598ZM77.028 12.6052H73.9674C73.9674 13.4081 74.209 14.0504 74.5312 14.6124C74.8533 15.0941 75.2561 15.5758 75.8199 15.897C76.3836 16.2182 76.9474 16.459 77.5918 16.6196C78.2361 16.7802 78.961 16.8605 79.6053 16.8605C80.2496 16.8605 80.9745 16.7802 81.6189 16.6196C82.2632 16.459 82.9075 16.2984 83.3908 15.9773C83.874 15.6561 84.2767 15.2547 84.5989 14.6927C84.9211 14.1307 85.0822 13.4884 85.0822 12.6855C85.0822 12.1235 85.0016 11.6417 84.76 11.3206C84.5184 10.9192 84.2767 10.598 83.874 10.3571C83.5519 10.1163 83.1492 9.87541 82.6659 9.71483C82.1827 9.55426 81.7799 9.39368 81.2967 9.31339C80.8134 9.23311 80.4107 9.07253 79.9275 8.99224C79.4442 8.91195 79.0415 8.83167 78.7194 8.67109C78.3972 8.51051 78.075 8.43023 77.9139 8.18936C77.6723 8.02879 77.5918 7.78792 77.5918 7.46677C77.5918 7.22591 77.6723 7.06533 77.7528 6.90476C77.9139 6.74418 77.9945 6.66389 78.1556 6.58361C78.3166 6.50332 78.5583 6.42303 78.7194 6.42303C78.961 6.42303 79.1221 6.34274 79.2831 6.34274C79.8469 6.34274 80.4107 6.42303 80.8134 6.66389C81.2162 6.90476 81.4578 7.3062 81.5383 7.9485H84.6795C84.5989 7.22591 84.4378 6.58361 84.1157 6.10188C83.7935 5.62015 83.3908 5.21871 82.9075 4.89756C82.4243 4.57641 81.8605 4.41583 81.2967 4.25526C80.7329 4.09468 80.0886 4.09468 79.4442 4.09468C78.7999 4.09468 78.1556 4.17497 77.5112 4.25526C76.8669 4.49612 76.3836 4.73699 75.8199 5.05814C75.3366 5.299 74.9339 5.70044 74.6117 6.18217C74.2896 6.66389 74.209 7.3062 74.209 8.02879C74.209 8.51052 74.2896 8.99224 74.5312 9.39368C74.7728 9.71483 75.0144 10.036 75.4171 10.2768C75.7393 10.5177 76.142 10.6783 76.6253 10.8389C77.1085 10.9994 77.5918 11.0797 78.075 11.2403C79.2831 11.4812 80.1691 11.722 80.8134 11.9629C81.4578 12.2038 81.7799 12.6052 81.7799 13.0869C81.7799 13.4081 81.6994 13.6489 81.5383 13.8095C81.3772 13.9701 81.2161 14.1307 80.9745 14.2912C80.8134 14.3715 80.5718 14.4518 80.2497 14.5321C80.008 14.6124 79.7664 14.6124 79.5248 14.6124C79.2026 14.6124 78.8804 14.6124 78.5583 14.5321C78.2361 14.4518 77.9945 14.3715 77.7528 14.211C77.5112 14.0504 77.3501 13.8095 77.1891 13.5687C77.1085 13.2475 77.028 12.9263 77.028 12.6052ZM87.2568 0.0802879V16.459H90.559V12.3643L91.8477 11.16L95.1499 16.459H99.0964L94.1028 8.91195L98.6132 4.57641H94.7472L90.6395 8.83167V0H87.2568V0.0802879ZM103.124 10.5177C103.124 10.036 103.204 9.55426 103.285 9.15282C103.365 8.67109 103.526 8.26965 103.768 7.9485C104.009 7.62735 104.332 7.3062 104.654 7.06533C105.057 6.82447 105.459 6.74418 106.023 6.74418C106.587 6.74418 107.07 6.82447 107.392 7.06533C107.795 7.3062 108.117 7.54706 108.278 7.9485C108.52 8.26965 108.681 8.67109 108.761 9.15282C108.842 9.63455 108.923 10.1163 108.923 10.5177C108.923 10.9994 108.842 11.4812 108.761 11.8826C108.681 12.3643 108.52 12.7658 108.278 13.0869C108.037 13.4081 107.795 13.7292 107.392 13.9701C106.99 14.211 106.587 14.2912 106.023 14.2912C105.459 14.2912 104.976 14.211 104.654 13.9701C104.251 13.7292 104.009 13.4884 103.768 13.0869C103.526 12.6855 103.365 12.284 103.285 11.8826C103.124 11.4812 103.124 10.9994 103.124 10.5177ZM99.8213 10.5177C99.8213 11.4812 99.9824 12.284 100.224 13.0869C100.546 13.8898 100.949 14.5321 101.513 15.0941C102.076 15.6561 102.721 16.0576 103.446 16.2984C104.171 16.6196 105.057 16.6999 106.023 16.6999C106.99 16.6999 107.795 16.5393 108.6 16.2984C109.406 15.9773 110.05 15.5758 110.533 15.0941C111.097 14.5321 111.5 13.8898 111.742 13.0869C112.064 12.284 112.144 11.4812 112.144 10.5177C112.144 9.55426 111.983 8.75138 111.742 7.9485C111.419 7.14562 111.017 6.50332 110.533 5.9413C109.97 5.37929 109.325 4.97785 108.6 4.6567C107.875 4.33555 106.99 4.17497 106.023 4.17497C105.057 4.17497 104.251 4.33555 103.446 4.6567C102.721 4.97785 102.076 5.37929 101.513 5.9413C100.949 6.50332 100.546 7.14562 100.224 7.9485C99.9824 8.67109 99.8213 9.55426 99.8213 10.5177ZM113.916 6.50332H117.057C117.057 6.10188 117.057 5.62015 117.138 5.21871C117.218 4.73698 117.379 4.41583 117.541 4.01439C117.702 3.61295 118.024 3.37209 118.346 3.13123C118.668 2.89036 119.071 2.81008 119.554 2.81008C120.279 2.81008 120.843 3.05094 121.326 3.45238C121.809 3.85382 122.051 4.49612 122.051 5.299C122.051 5.78073 121.97 6.26245 121.729 6.58361C121.487 6.98505 121.245 7.3062 120.923 7.62735C120.601 7.9485 120.198 8.18936 119.876 8.51052C119.474 8.75138 119.071 8.99224 118.749 9.23311C118.024 9.71483 117.379 10.1966 116.735 10.598C116.091 11.0797 115.608 11.5615 115.124 12.1235C114.641 12.6855 114.319 13.2475 113.997 13.9701C113.755 14.6927 113.594 15.4956 113.594 16.3787H125.514V13.5687H117.863C118.265 13.0066 118.749 12.5249 119.232 12.1235C119.715 11.722 120.279 11.3206 120.843 10.9994C121.407 10.598 121.97 10.2768 122.454 9.87541C123.017 9.47397 123.501 9.07253 123.903 8.67109C124.306 8.18936 124.709 7.70764 124.95 7.14562C125.192 6.58361 125.353 5.86102 125.353 5.05814C125.353 4.25526 125.192 3.61295 124.87 2.97065C124.548 2.32835 124.145 1.84662 123.662 1.36489C123.178 0.963454 122.534 0.642303 121.89 0.401439C121.245 0.160576 120.521 0.0802879 119.796 0.0802879C118.829 0.0802879 117.943 0.240864 117.218 0.562015C116.493 0.883167 115.849 1.36489 115.366 1.92691C114.883 2.48892 114.48 3.21152 114.238 4.01439C113.997 4.73698 113.916 5.62015 113.916 6.50332ZM132.763 13.6489C132.28 13.6489 131.796 13.5687 131.474 13.3278C131.152 13.0869 130.83 12.8461 130.669 12.5249C130.508 12.2038 130.347 11.8023 130.266 11.4009C130.186 10.9994 130.186 10.5177 130.186 10.1163C130.186 9.63455 130.266 9.23311 130.347 8.83167C130.427 8.43023 130.588 8.02879 130.83 7.78792C131.072 7.46677 131.313 7.22591 131.635 7.06533C131.958 6.90476 132.36 6.82447 132.843 6.82447C133.407 6.82447 133.81 6.90476 134.213 7.14562C134.535 7.3062 134.857 7.62735 135.099 7.9485C135.34 8.26965 135.501 8.67109 135.582 9.15282C135.662 9.55426 135.743 10.036 135.743 10.5177C135.743 10.9192 135.662 11.3206 135.582 11.722C135.501 12.1235 135.34 12.4446 135.099 12.7658C134.857 13.0869 134.535 13.3278 134.213 13.4884C133.891 13.6489 133.246 13.6489 132.763 13.6489ZM138.642 15.6561V4.57641H135.501V6.18217H135.421C135.018 5.45958 134.535 4.97785 133.891 4.73699C133.327 4.41583 132.602 4.33555 131.796 4.33555C130.991 4.33555 130.186 4.49612 129.541 4.81727C128.897 5.13842 128.414 5.53986 127.93 6.10188C127.528 6.66389 127.206 7.22591 126.964 7.9485C126.722 8.67109 126.642 9.39368 126.642 10.1163C126.642 10.9192 126.722 11.722 126.883 12.4446C127.044 13.1672 127.367 13.8095 127.769 14.3715C128.172 14.9335 128.736 15.335 129.38 15.6561C130.025 15.9773 130.83 16.1379 131.716 16.1379C132.441 16.1379 133.166 15.9773 133.81 15.7364C134.454 15.4153 135.018 14.9335 135.34 14.3715H135.421V15.897C135.421 16.6999 135.26 17.4225 134.776 17.9845C134.374 18.5465 133.729 18.7874 132.763 18.7874C132.199 18.7874 131.635 18.6268 131.233 18.3859C130.749 18.1451 130.508 17.7436 130.347 17.1013H127.125C127.206 17.7436 127.367 18.3859 127.689 18.7874C128.011 19.2691 128.414 19.6705 128.977 19.9917C129.461 20.3128 130.025 20.5537 130.669 20.634C131.313 20.7946 131.877 20.8748 132.441 20.8748C133.81 20.8748 134.938 20.7143 135.743 20.3128C136.548 19.9114 137.193 19.51 137.595 18.9479C137.998 18.4662 138.32 17.8239 138.401 17.2619C138.562 16.6999 138.642 16.1379 138.642 15.6561ZM144.2 10.5177C144.2 10.036 144.28 9.55426 144.361 9.15282C144.441 8.67109 144.603 8.26965 144.844 7.9485C145.086 7.62735 145.408 7.3062 145.73 7.06533C146.133 6.82447 146.536 6.74418 147.099 6.74418C147.663 6.74418 148.146 6.82447 148.469 7.06533C148.871 7.3062 149.193 7.54706 149.355 7.9485C149.596 8.26965 149.757 8.67109 149.838 9.15282C149.918 9.63455 149.999 10.1163 149.999 10.5177C149.999 10.9994 149.918 11.4812 149.838 11.8826C149.757 12.3643 149.596 12.7658 149.355 13.0869C149.113 13.4081 148.871 13.7292 148.469 13.9701C148.066 14.211 147.663 14.2912 147.099 14.2912C146.536 14.2912 146.052 14.211 145.73 13.9701C145.327 13.7292 145.086 13.4884 144.844 13.0869C144.603 12.6855 144.441 12.284 144.361 11.8826C144.28 11.4812 144.2 10.9994 144.2 10.5177ZM140.898 10.5177C140.898 11.4812 141.059 12.284 141.3 13.0869C141.623 13.8898 142.025 14.5321 142.589 15.0941C143.153 15.6561 143.797 16.0576 144.522 16.2984C145.247 16.6196 146.133 16.6999 147.099 16.6999C148.066 16.6999 148.871 16.5393 149.677 16.2984C150.482 15.9773 151.126 15.5758 151.61 15.0941C152.174 14.5321 152.576 13.8898 152.898 13.0869C153.221 12.284 153.301 11.4812 153.301 10.5177C153.301 9.55426 153.14 8.75138 152.898 7.9485C152.576 7.14562 152.174 6.50332 151.61 5.9413C151.046 5.37929 150.402 4.97785 149.677 4.6567C148.952 4.33555 148.066 4.17497 147.099 4.17497C146.133 4.17497 145.327 4.33555 144.522 4.6567C143.797 4.97785 143.153 5.37929 142.589 5.9413C142.025 6.50332 141.623 7.14562 141.3 7.9485C141.059 8.67109 140.898 9.55426 140.898 10.5177Z" fill="white"/>
<path d="M123.667 33.0048C123.667 33.0861 123.667 33.0861 123.667 33.1674L123.586 33.2487C123.505 33.2487 123.423 33.2487 123.342 33.33C123.26 33.33 120.327 33.9804 118.779 33.1674C118.454 33.0048 118.209 32.761 117.965 32.4358C117.72 32.1106 117.639 31.7854 117.476 31.2977C117.395 30.8912 117.313 30.4034 117.313 29.997C117.313 29.4279 117.395 28.9402 117.476 28.4524C117.558 28.0459 117.802 27.6395 117.965 27.3143C118.209 26.9891 118.454 26.7452 118.861 26.5826C119.187 26.42 119.594 26.3387 120.083 26.3387C120.409 26.3387 120.735 26.42 121.061 26.5826C121.386 26.7452 121.631 26.9078 121.957 27.233V24.7942C121.957 24.7129 121.957 24.7129 121.957 24.6316C121.957 24.6316 122.038 24.5503 122.12 24.5503C122.201 24.5503 122.283 24.469 122.364 24.469C122.445 24.469 122.608 24.469 122.771 24.469C122.934 24.469 123.097 24.469 123.179 24.469C123.26 24.469 123.342 24.469 123.423 24.5503C123.505 24.5503 123.505 24.6316 123.586 24.6316C123.586 24.6316 123.667 24.7129 123.667 24.7942V33.0048ZM121.875 28.7776C121.631 28.4524 121.386 28.2085 121.142 28.0459C120.898 27.8833 120.653 27.802 120.409 27.802C120.164 27.802 120.001 27.8833 119.839 27.9646C119.676 28.0459 119.513 28.2085 119.431 28.4524C119.35 28.615 119.268 28.8589 119.187 29.1027C119.105 29.3466 119.105 29.5905 119.105 29.8344C119.105 30.0783 119.105 30.3221 119.187 30.566C119.268 30.8099 119.268 31.0538 119.431 31.2164C119.513 31.379 119.676 31.5416 119.839 31.7041C120.246 32.0293 121.794 32.1106 121.957 31.8667V28.7776H121.875ZM130.511 29.6718C130.511 29.9157 130.429 30.0783 130.348 30.1596C130.266 30.2409 130.103 30.3221 129.94 30.3221H126.111C126.111 30.566 126.111 30.8099 126.193 31.0538C126.274 31.2977 126.356 31.4603 126.519 31.6229C126.682 31.7854 126.845 31.8667 127.089 31.948C127.333 32.0293 127.578 32.0293 127.904 32.0293C128.23 32.0293 128.474 32.0293 128.718 31.948C128.963 31.8667 129.126 31.8667 129.289 31.7854C129.452 31.7041 129.615 31.7041 129.696 31.6229C129.777 31.5416 129.94 31.5416 129.94 31.5416C130.022 31.5416 130.022 31.5416 130.022 31.5416L130.103 31.6229C130.103 31.7041 130.103 31.7041 130.103 31.7854C130.103 31.8667 130.103 31.948 130.103 32.1106C130.103 32.1919 130.103 32.2732 130.103 32.3545C130.103 32.4358 130.103 32.5171 130.103 32.5171C130.103 32.5984 130.103 32.5984 130.022 32.6797L129.94 32.761C129.94 32.761 129.859 32.8423 129.696 32.9236C129.533 33.0048 129.37 33.0048 129.207 33.0861C128.963 33.1674 128.718 33.1674 128.474 33.2487C128.23 33.2487 127.904 33.33 127.578 33.33C127.008 33.33 126.519 33.2487 126.111 33.0861C125.704 32.9236 125.378 32.761 125.052 32.4358C124.808 32.1106 124.564 31.7854 124.401 31.379C124.238 30.9725 124.156 30.4034 124.156 29.8344C124.156 29.2653 124.238 28.7776 124.401 28.2898C124.564 27.802 124.727 27.4769 125.052 27.1517C125.297 26.8265 125.704 26.5826 126.03 26.42C126.437 26.2575 126.845 26.1762 127.415 26.1762C127.904 26.1762 128.393 26.2575 128.8 26.42C129.207 26.5826 129.452 26.8265 129.696 27.0704C129.94 27.3143 130.103 27.6394 130.266 28.0459C130.348 28.4524 130.429 28.8589 130.429 29.2653V29.6718H130.511ZM128.8 29.184C128.8 28.6963 128.718 28.2898 128.474 28.0459C128.23 27.802 127.904 27.6394 127.496 27.6394C127.252 27.6394 127.089 27.7207 126.926 27.802C126.763 27.8833 126.6 27.9646 126.519 28.1272C126.437 28.2898 126.356 28.4524 126.274 28.615C126.193 28.7776 126.193 29.0214 126.193 29.2653H128.8V29.184ZM137.191 32.8423C137.191 32.9236 137.272 33.0048 137.272 33.0048C137.272 33.0861 137.272 33.0861 137.191 33.1674C137.109 33.1674 137.028 33.2487 136.865 33.2487C136.702 33.2487 136.539 33.2487 136.295 33.2487C136.05 33.2487 135.887 33.2487 135.806 33.2487C135.643 33.2487 135.562 33.2487 135.48 33.1674C135.399 33.1674 135.317 33.0861 135.317 33.0861L135.236 33.0048L134.095 30.8099L132.955 33.0048C132.955 33.0861 132.873 33.0861 132.873 33.0861C132.873 33.0861 132.792 33.1674 132.71 33.1674C132.629 33.1674 132.547 33.1674 132.384 33.2487C132.303 33.2487 132.14 33.2487 131.896 33.2487C131.651 33.2487 131.488 33.2487 131.407 33.2487C131.244 33.2487 131.162 33.2487 131.162 33.1674C131.081 33.1674 131.081 33.0861 131.081 33.0048C131.081 32.9236 131.081 32.9236 131.162 32.8423L132.873 29.7531L131.244 26.8265C131.162 26.7452 131.162 26.6639 131.162 26.5826C131.162 26.5013 131.162 26.5013 131.244 26.42C131.325 26.42 131.407 26.3387 131.57 26.3387C131.733 26.3387 131.896 26.3387 132.14 26.3387C132.384 26.3387 132.547 26.3387 132.629 26.3387C132.792 26.3387 132.873 26.3387 132.955 26.3387C133.036 26.3387 133.118 26.3387 133.118 26.42L133.199 26.5013L134.34 28.615L135.48 26.5013C135.48 26.5013 135.48 26.42 135.562 26.42C135.562 26.42 135.643 26.3387 135.724 26.3387C135.806 26.3387 135.887 26.3387 135.969 26.2575C136.05 26.2575 136.213 26.2575 136.376 26.2575C136.621 26.2575 136.784 26.2575 136.865 26.2575C137.028 26.2575 137.109 26.2575 137.109 26.3387C137.191 26.3387 137.191 26.42 137.191 26.5013C137.191 26.5826 137.191 26.6639 137.109 26.7452L135.562 29.5905L137.191 32.8423ZM142.16 32.3545C142.16 32.5984 142.16 32.6797 142.16 32.8423C142.16 32.9236 142.079 33.0048 142.079 33.0861C141.997 33.1674 141.997 33.1674 141.916 33.1674C141.834 33.1674 141.753 33.2487 141.59 33.2487C141.509 33.2487 141.346 33.33 141.264 33.33C141.101 33.33 141.02 33.33 140.857 33.33C140.531 33.33 140.205 33.2487 139.961 33.1674C139.716 33.0861 139.472 32.9236 139.309 32.761C139.146 32.5984 138.983 32.3545 138.902 32.0293C138.82 31.7854 138.82 31.379 138.82 31.0538V27.802H138.087C138.006 27.802 137.924 27.7207 137.924 27.6394C137.843 27.5582 137.843 27.3143 137.843 27.0704C137.843 26.9078 137.843 26.8265 137.843 26.7452C137.843 26.6639 137.843 26.5826 137.924 26.5013C137.924 26.42 138.006 26.42 138.006 26.42C138.006 26.42 138.087 26.42 138.168 26.42H138.902V24.7129C138.902 24.6316 138.902 24.6316 138.902 24.5503C138.902 24.5503 138.983 24.469 139.065 24.469C139.146 24.469 139.228 24.3877 139.309 24.3877C139.39 24.3877 139.553 24.3877 139.716 24.3877C139.879 24.3877 140.042 24.3877 140.124 24.3877C140.205 24.3877 140.368 24.3877 140.368 24.469C140.45 24.469 140.45 24.5503 140.531 24.5503C140.531 24.5503 140.612 24.6316 140.612 24.7129V26.42H141.509C141.59 26.42 141.59 26.42 141.671 26.42L141.753 26.5013C141.753 26.5826 141.834 26.6639 141.834 26.7452C141.834 26.8265 141.834 26.9891 141.834 27.0704C141.834 27.3143 141.834 27.4769 141.753 27.6394C141.672 27.7207 141.672 27.802 141.509 27.802H140.612V30.8099C140.612 31.1351 140.694 31.379 140.775 31.5416C140.857 31.7041 141.101 31.7854 141.346 31.7854C141.427 31.7854 141.509 31.7854 141.59 31.7854C141.671 31.7854 141.753 31.7854 141.753 31.7041C141.834 31.7041 141.834 31.7041 141.916 31.6229H141.997H142.079L142.16 31.7041C142.16 31.7854 142.16 31.7854 142.16 31.8667C142.16 32.1106 142.16 32.1919 142.16 32.3545ZM147.456 27.1517C147.456 27.3143 147.456 27.6395 147.456 27.7207C147.456 27.802 147.456 27.8833 147.374 27.9646C147.374 28.0459 147.293 28.0459 147.293 28.1272H147.211C147.211 28.1272 147.13 28.1272 147.048 28.1272C146.967 28.1272 146.967 28.1272 146.885 28.0459C146.804 28.0459 146.722 28.0459 146.722 27.9646C146.641 27.9646 146.559 27.9646 146.478 27.9646C146.397 27.9646 146.315 27.9646 146.152 28.0459C146.071 28.0459 145.989 28.1272 145.826 28.2085C145.745 28.2898 145.582 28.3711 145.5 28.5337C145.419 28.6963 145.256 28.8589 145.093 29.0214V32.9236C145.093 33.0048 145.093 33.0048 145.012 33.0861C145.012 33.0861 144.93 33.1674 144.849 33.1674C144.767 33.1674 144.686 33.2487 144.604 33.2487C144.523 33.2487 144.36 33.2487 144.197 33.2487C144.034 33.2487 143.871 33.2487 143.79 33.2487C143.708 33.2487 143.545 33.2487 143.545 33.1674C143.464 33.1674 143.464 33.0861 143.382 33.0861C143.382 33.0861 143.301 33.0048 143.301 32.9236V26.6639C143.301 26.5826 143.301 26.5826 143.301 26.5013C143.301 26.5013 143.382 26.42 143.464 26.42C143.545 26.42 143.627 26.3387 143.708 26.3387C143.79 26.3387 143.953 26.3387 144.034 26.3387C144.197 26.3387 144.278 26.3387 144.441 26.3387C144.523 26.3387 144.604 26.3387 144.686 26.42C144.767 26.42 144.767 26.5013 144.767 26.5013C144.767 26.5013 144.767 26.5826 144.767 26.6639V27.4769C145.012 27.0704 145.337 26.5826 145.908 26.42C146.071 26.42 146.315 26.3387 146.397 26.3387C146.478 26.3387 146.559 26.3387 146.641 26.3387C146.722 26.3387 146.804 26.3387 146.885 26.3387C146.967 26.3387 147.048 26.3387 147.048 26.42C147.13 26.42 147.13 26.5013 147.211 26.5013L147.293 26.5826V26.6639C147.293 26.7452 147.293 26.8265 147.293 26.9078C147.456 27.0704 147.456 26.9891 147.456 27.1517ZM153.647 32.8423C153.647 32.9236 153.647 32.9236 153.566 33.0048C153.484 33.0048 153.484 33.0861 153.321 33.0861C153.24 33.0861 151.04 33.6552 149.411 33.33C149.085 33.2487 148.678 33.0861 148.433 32.9236C148.189 32.761 148.107 32.5171 147.944 32.2732C147.863 32.0293 147.781 31.7041 147.781 31.379C147.781 30.9725 147.863 30.7286 148.026 30.4034C148.189 30.1596 148.352 29.9157 148.678 29.7531C149.003 29.5905 149.329 29.4279 149.737 29.3466C150.144 29.2653 150.633 29.184 151.203 29.184H151.855V28.7776C151.855 28.615 151.855 28.2085 151.773 28.0459C151.773 27.8833 151.692 27.802 151.61 27.6394C151.529 27.5582 151.366 27.4769 151.203 27.3956C151.04 27.3143 150.877 27.3143 150.633 27.3143C150.307 27.3143 150.063 27.3143 149.818 27.3956C149.574 27.4769 149.411 27.5582 149.166 27.6394C149.003 27.7207 148.841 27.802 148.678 27.8833C148.596 27.9646 148.433 27.9646 148.352 27.9646C148.27 27.9646 148.27 27.9646 148.189 27.8833C148.189 27.8833 148.107 27.802 148.107 27.7207C148.107 27.6395 148.026 27.5582 148.026 27.4769C148.026 27.3956 148.026 27.3143 148.026 27.1517C148.026 26.9891 148.026 26.9078 148.026 26.8265C148.026 26.7452 148.107 26.6639 148.189 26.5826C148.27 26.5013 148.352 26.42 148.515 26.3387C148.678 26.2575 148.841 26.1762 149.085 26.0949C149.329 26.0136 149.574 25.9323 149.818 25.9323C150.063 25.851 150.388 25.851 150.633 25.851C151.122 25.851 151.529 25.9323 151.936 26.0136C152.262 26.0949 152.588 26.2575 152.832 26.42C153.077 26.5826 153.24 26.9078 153.321 27.233C153.403 27.5582 153.484 28.1272 153.484 28.5337V32.8423H153.647ZM151.855 30.3221H151.203C150.877 30.3221 150.633 30.3221 150.47 30.4034C150.307 30.4847 150.063 30.4847 149.981 30.566C149.818 30.6473 149.737 30.7286 149.737 30.8912C149.655 30.9725 149.655 31.1351 149.655 31.2977C149.655 31.5416 149.737 31.6229 149.9 31.7854C150.307 32.1106 151.529 32.1106 151.936 31.948V30.3221H151.855Z" fill="white"/>
<path d="M170.43 29.1846C170.43 29.1846 166.764 28.6969 164.401 30.404C161.631 32.4364 162.446 32.3551 161.876 35.0378C164.238 35.2004 162.609 35.1191 164.157 35.8507C166.601 30.8105 170.918 29.9163 173.118 32.1112C172.385 30.1601 171.081 29.4285 170.43 29.1846Z" fill="url(#paint0_linear)"/>
<path d="M170.104 26.9082C170.104 26.9082 166.682 27.1521 164.238 28.8593C161.713 30.6477 161.387 31.4607 160.328 34.7937C161.713 34.7124 162.69 33.7369 164.727 34.7124C167.415 28.4528 172.14 28.3715 174.177 30.16C173.607 28.6154 171.814 26.9082 170.104 26.9082Z" fill="url(#paint1_linear)"/>
<path d="M168.962 25.1197C167.74 25.0384 166.03 25.3636 164.319 26.5017C161.875 28.1276 158.779 34.5498 159.512 36.9073C160.246 37.5577 160.897 37.8829 162.364 37.5577C163.83 37.2325 164.482 35.5253 165.133 33.7369C166.926 28.6154 170.266 25.201 173.443 26.9895C172.384 26.014 169.94 25.2823 168.962 25.1197Z" fill="url(#paint2_linear)"/>
<path d="M162.282 37.6389C158.861 38.2893 159.187 33.8181 161.875 29.3469C166.437 21.8679 165.215 22.3557 164.482 20.3233C164.075 19.1852 162.119 18.0471 160.734 17.478C163.015 20.4046 162.282 20.7298 159.105 26.3391C152.669 37.9641 159.92 38.2893 162.282 37.6389Z" fill="url(#paint3_linear)"/>
<path d="M157.313 20.1611C161.875 17.3158 164.97 20.3236 165.215 22.4373C165.296 21.3805 164.97 19.1855 163.83 18.1287C163.341 17.5596 160.327 14.6331 157.313 20.1611Z" fill="url(#paint4_linear)"/>
<defs>
<linearGradient id="paint0_linear" x1="166.719" y1="36.3739" x2="168.366" y2="28.7277" gradientUnits="userSpaceOnUse">
<stop offset="0.4847" stop-color="#11284E"/>
<stop offset="0.5617" stop-color="#152E54"/>
<stop offset="0.6662" stop-color="#1E3F65"/>
<stop offset="0.7864" stop-color="#2F5B82"/>
<stop offset="0.9174" stop-color="#4582A9"/>
<stop offset="1" stop-color="#569EC6"/>
</linearGradient>
<linearGradient id="paint1_linear" x1="166.281" y1="36.4129" x2="169.061" y2="26.4929" gradientUnits="userSpaceOnUse">
<stop offset="0.4663" stop-color="#000023"/>
<stop offset="0.5297" stop-color="#05092D"/>
<stop offset="0.636" stop-color="#132247"/>
<stop offset="0.7721" stop-color="#294B71"/>
<stop offset="0.9311" stop-color="#4883AB"/>
<stop offset="1" stop-color="#569EC6"/>
</linearGradient>
<linearGradient id="paint2_linear" x1="163.604" y1="38.5337" x2="167.847" y2="24.7085" gradientUnits="userSpaceOnUse">
<stop offset="0.1591" stop-color="#000022"/>
<stop offset="0.2891" stop-color="#142447"/>
<stop offset="0.5437" stop-color="#37658B"/>
<stop offset="0.7281" stop-color="#4D8EB6"/>
<stop offset="0.8221" stop-color="#569EC6"/>
</linearGradient>
<linearGradient id="paint3_linear" x1="164.259" y1="18.4687" x2="158.619" y2="37.4677" gradientUnits="userSpaceOnUse">
<stop offset="0.1832" stop-color="#00001F"/>
<stop offset="0.9141" stop-color="#569EC6"/>
</linearGradient>
<linearGradient id="paint4_linear" x1="159.404" y1="22.5549" x2="164.135" y2="18.3713" gradientUnits="userSpaceOnUse">
<stop offset="0.0981595" stop-color="#569EC6"/>
<stop offset="0.2467" stop-color="#549AC2"/>
<stop offset="0.3902" stop-color="#4E8FB7"/>
<stop offset="0.5318" stop-color="#437BA3"/>
<stop offset="0.6721" stop-color="#346088"/>
<stop offset="0.8116" stop-color="#213D65"/>
<stop offset="0.9485" stop-color="#0A123B"/>
<stop offset="1" stop-color="#000029"/>
</linearGradient>
</defs>
</svg>
