<svg width="78" height="78" viewBox="0 0 78 78" fill="none" xmlns="http://www.w3.org/2000/svg">
<circle opacity="0.1" cx="39" cy="39" r="39" fill="#FF0F0F"/>
<g clip-path="url(#clip0)">
<path d="M46.5 44L50.25 44C50.6642 44 51 43.6642 51 43.25L51 30.5C51 30.0858 50.6642 29.75 50.25 29.75L46.5 29.75C46.0858 29.75 45.75 30.0858 45.75 30.5L45.75 43.25C45.75 43.6642 46.0858 44 46.5 44Z" fill="#FF0F0F"/>
<path d="M27.4095 43.3001C27.6677 43.7348 28.0327 44.0962 28.47 44.35C28.9073 44.6037 29.4022 44.7414 29.9077 44.7498L36 44.7498L36 48.4998C36.0013 49.5145 36.3449 50.499 36.9752 51.2942C37.6055 52.0893 38.4857 52.6485 39.4732 52.8813C39.6903 52.9251 39.9144 52.9198 40.1291 52.8657C40.3438 52.8116 40.5436 52.7101 40.714 52.5687C40.8844 52.4273 41.021 52.2496 41.1137 52.0485C41.2065 51.8475 41.253 51.6282 41.25 51.4068L41.25 46.5273L44.25 43.0248L44.25 29.7498L31.4962 29.7498C30.679 29.747 29.8883 30.0397 29.2699 30.5739C28.6514 31.1081 28.247 31.8479 28.131 32.6568L27.006 41.6568L27.006 41.6636C26.9561 42.2387 27.098 42.8141 27.4095 43.3001Z" fill="#FF0F0F"/>
</g>
<defs>
<clipPath id="clip0">
<rect width="24" height="24" fill="white" transform="translate(51 53) rotate(-180)"/>
</clipPath>
</defs>
</svg>
