<svg width="24" height="20" viewBox="0 0 24 20" fill="none" xmlns="http://www.w3.org/2000/svg">
<path d="M13.4 12.5999C12.989 12.8813 12.4977 13.0217 12 12.9999C11.5023 13.0217 11.011 12.8813 10.6 12.5999L0 6.8999V16.9999C0 17.7956 0.31607 18.5586 0.87868 19.1212C1.44129 19.6838 2.20435 19.9999 3 19.9999H21C21.7956 19.9999 22.5587 19.6838 23.1213 19.1212C23.6839 18.5586 24 17.7956 24 16.9999V6.8999L13.4 12.5999Z" fill="#32B1F4"/>
<path d="M21 0H3.00001C2.20437 0 1.4413 0.316071 0.878694 0.87868C0.316085 1.44129 1.47444e-05 2.20435 1.47444e-05 3V4C-0.00094077 4.18032 0.0445606 4.35785 0.132135 4.51549C0.219709 4.67312 0.346405 4.80555 0.500015 4.9L11.5 10.9C11.6536 10.9808 11.8272 11.0156 12 11C12.1728 11.0156 12.3465 10.9808 12.5 10.9L23.5 4.9C23.6536 4.80555 23.7803 4.67312 23.8679 4.51549C23.9555 4.35785 24.001 4.18032 24 4V3C24 2.20435 23.6839 1.44129 23.1213 0.87868C22.5587 0.316071 21.7957 0 21 0Z" fill="#32B1F4"/>
</svg>
