<svg width="22" height="20" viewBox="0 0 22 20" fill="none" xmlns="http://www.w3.org/2000/svg">
<path d="M20.9163 18.0345L11.5413 1.29874C11.4819 1.20686 11.4015 1.13151 11.307 1.07939C11.2126 1.02727 11.1071 1 11 1C10.8929 1 10.7874 1.02727 10.693 1.07939C10.5985 1.13151 10.5181 1.20686 10.4587 1.29874L1.08373 18.0345C1.02888 18.1323 1 18.2433 1 18.3563C0.999999 18.4693 1.02888 18.5803 1.08373 18.6782C1.13858 18.776 1.21748 18.8573 1.31249 18.9138C1.4075 18.9703 1.51528 19 1.62499 19H20.375C20.4847 19 20.5925 18.9703 20.6875 18.9138C20.7825 18.8573 20.8614 18.776 20.9163 18.6782C20.9711 18.5803 21 18.4693 21 18.3563C21 18.2433 20.9711 18.1323 20.9163 18.0345ZM12.0713 6.77004L11.625 13.2069H10.375L9.92875 6.77004H12.0713ZM11 17.069C10.7802 17.069 10.5654 17.0018 10.3826 16.8761C10.1999 16.7503 10.0574 16.5716 9.97334 16.3625C9.88923 16.1533 9.86722 15.9232 9.9101 15.7012C9.95298 15.4792 10.0588 15.2753 10.2142 15.1152C10.3696 14.9552 10.5676 14.8462 10.7832 14.802C10.9988 14.7579 11.2222 14.7805 11.4253 14.8671C11.6283 14.9538 11.8019 15.1004 11.924 15.2887C12.0461 15.4769 12.1113 15.6981 12.1113 15.9245C12.1113 16.228 11.9942 16.5191 11.7858 16.7337C11.5774 16.9484 11.2947 17.069 11 17.069Z" fill="#FF0F0F"/>
</svg>
