<svg width="24" height="24" viewBox="0 0 24 24" fill="none" xmlns="http://www.w3.org/2000/svg">
<path d="M24 10H22C21.9976 7.879 21.154 5.84555 19.6542 4.34578C18.1544 2.846 16.121 2.00238 14 2V0C16.6513 0.0029116 19.1931 1.05742 21.0679 2.93215C22.9426 4.80688 23.9971 7.34873 24 10Z" fill="#32B1F4"/>
<path d="M20 10H18C18 8.93913 17.5786 7.92172 16.8284 7.17157C16.0783 6.42143 15.0609 6 14 6V4C15.5908 4.00159 17.116 4.63424 18.2409 5.75911C19.3658 6.88399 19.9984 8.40919 20 10Z" fill="#32B1F4"/>
<path d="M15.522 14.4709L13.188 16.7709L7.22901 10.8119L9.52901 8.47787C9.6681 8.33638 9.76196 8.15671 9.79865 7.96172C9.83533 7.76673 9.81318 7.56523 9.73501 7.38287L7.34001 1.79287C7.24534 1.57244 7.07457 1.39339 6.85887 1.28838C6.64317 1.18337 6.39691 1.15941 6.16501 1.22087L1.76501 2.38287C1.54518 2.43975 1.35125 2.56975 1.21512 2.7515C1.07899 2.93324 1.00877 3.15591 1.01601 3.38287C1.29585 8.49676 3.42215 13.3353 7.00001 16.9999C10.6658 20.5782 15.5059 22.7043 20.621 22.9829C20.848 22.9901 21.0706 22.9199 21.2524 22.7838C21.4341 22.6476 21.5641 22.4537 21.621 22.2339L22.783 17.8339C22.8445 17.602 22.8205 17.3557 22.7155 17.14C22.6105 16.9243 22.4314 16.7535 22.211 16.6589L16.621 14.2639C16.438 14.185 16.2357 14.1625 16.0399 14.1994C15.8441 14.2363 15.6637 14.3308 15.522 14.4709Z" fill="#32B1F4"/>
</svg>
